<svg width="113" height="52" viewBox="0 0 113 52" fill="none" xmlns="http://www.w3.org/2000/svg"><g clip-path="url(#a)" fill="#000"><path d="M8.636 26.387a4.208 4.208 0 1 0-8.416-.003 4.208 4.208 0 0 0 8.416.003Z"/><path d="M97.837 8.534c4.687 0 5.906 1.027 5.906 5.65v5.649c0 4.622-1.219 5.65-5.906 5.65h-.642V8.533h.642ZM88.656 0v51.358h8.534V34.025h.647c11.235 0 14.445-3.981 14.445-14.188v-5.65C112.281 3.853 109.071 0 97.772 0h-9.116ZM62.592 0h-8.534v51.358h8.534V26.643l4.815 24.715h4.369l4.814-24.715v24.715h8.534V0H76.59l-6.997 32.291-7-32.291ZM41.985 37.042c0 4.877-.577 6.42-3.21 6.42-2.632 0-3.21-1.541-3.21-6.42V0h-8.54v37.489c0 10.336 4.108 14.509 11.748 14.509s11.75-4.17 11.75-14.509V0h-8.538v37.042Zm-27.025 0c0 4.877-.578 6.42-3.21 6.42-2.63 0-3.149-1.541-3.21-6.42v-3.53H0v3.977C0 47.827 4.109 52 11.749 52c7.64 0 11.747-4.173 11.747-14.511V0h-8.534l-.002 37.042Z"/><circle cx="4.419" cy="26.364" r="4.216"/></g><defs><clipPath id="a"><path fill="#fff" d="M0 0h112.281v52H0z"/></clipPath></defs></svg>